<?xml version="1.0" encoding="UTF-8"?>
<svg id="Capa_2" data-name="Capa 2" xmlns="http://www.w3.org/2000/svg" xmlns:xlink="http://www.w3.org/1999/xlink" viewBox="0 0 110.36 110.36">
  <defs>
    <style>
      .cls-1 {
        fill: #fff;
      }

      .cls-2 {
        fill: #7fa6d7;
      }

      .cls-3 {
        fill: none;
      }

      .cls-4 {
        fill: #7b361d;
      }

      .cls-5 {
        clip-path: url(#clippath-1);
      }

      .cls-6 {
        fill: #c1272d;
      }

      .cls-7 {
        clip-path: url(#clippath-2);
      }

      .cls-8 {
        clip-path: url(#clippath);
      }

      .cls-9 {
        fill: #f1bd52;
      }
    </style>
    <clipPath id="clippath">
      <circle class="cls-3" cx="55.18" cy="55.18" r="55.18" transform="translate(-16.92 85.05) rotate(-67.5)"/>
    </clipPath>
    <clipPath id="clippath-1">
      <rect class="cls-3" x="-7.7" y="-3.28" width="126" height="121.58"/>
    </clipPath>
    <clipPath id="clippath-2">
      <rect class="cls-3" x="-7.7" y="-3.28" width="126" height="121.58"/>
    </clipPath>
  </defs>
  <g id="Capa_2-2" data-name="Capa 2">
    <g class="cls-8">
      <g class="cls-5">
        <rect class="cls-6" x="-31.08" y="-27.77" width="172.52" height="165.91"/>
        <rect class="cls-1" x="-7.7" y="37.24" width="126" height="40.53"/>
        <rect class="cls-2" x="-7.7" y="-3.28" width="126" height="40.53"/>
        <rect class="cls-2" x="-7.7" y="77.77" width="126" height="40.52"/>
        <g class="cls-7">
          <path class="cls-9" d="M55.8,57.49l.63,16.59s0,.31.21.31c.19,0,.19-.31.19-.31l.63-16.59h-1.66Z"/>
          <path class="cls-4" d="M56.63,74.44c-.21,0-.26-.24-.26-.36l-.63-16.58.11-.02.61,16.59s0,.25.17.25c.15,0,.15-.25.15-.25l.63-16.59-.51,16.59c0,.11-.07.36-.27.36h0Z"/>
          <polygon class="cls-4" points="56.22 57.49 56.63 68.88 57.03 57.49 56.22 57.49"/>
          <path class="cls-9" d="M55.07,62.85c-.95,2.09-.16,3.79-1.08,5.61-.97,1.82-.38,3.32-.42,4.16-.07.84-.74,1.07-.58,1.27.18.19.9-.19,1.16-1.31.28-1.11-.38-1.75.74-3.98,1.15-2.24.25-3.24,1.41-5.24l-1.23-.51Z"/>
          <path class="cls-4" d="M53.17,73.98l-.23-.06c-.09-.12,0-.24.13-.38.16-.18.41-.46.42-.93.02-.22,0-.49-.04-.81-.1-.85-.23-2.01.49-3.36.46-.91.48-1.77.52-2.69.02-.92.07-1.87.57-2.92l.09.04c-.47,1.04-.52,1.98-.55,2.89-.04.92-.08,1.81-.53,2.72-.7,1.32-.56,2.49-.47,3.32.02.32.05.58.05.82-.05.5-.3.79-.47.99-.12.14-.16.19-.12.24.41-.05.89-.45,1.09-1.29.09-.36.09-.69.06-1.03-.05-.7-.06-1.47.69-2.96.57-1.1.63-1.9.68-2.67.05-.8.12-1.56.7-2.57-.5,1.05-.55,1.79-.61,2.57-.05.78-.12,1.61-.68,2.72-.74,1.47-.72,2.24-.7,2.91.02.36.02.69-.06,1.08-.21.81-.66,1.29-.99,1.37h-.04Z"/>
          <path class="cls-4" d="M55.35,63.38c-.75,2.08.02,3.45-.97,5.22,1.1-1.27.38-2.89,1.32-5.05l-.35-.18Z"/>
          <path class="cls-9" d="M57.46,57.49l-.63-16.56s0-.3-.19-.3c-.21,0-.21.3-.21.3l-.63,16.56h1.66Z"/>
          <path class="cls-4" d="M57.41,57.5l-.63-16.58s0-.27-.15-.27c-.17,0-.17.26-.17.26l-.61,16.58.52-16.58c0-.13.05-.37.26-.37.19,0,.27.24.27.37l.63,16.56-.12.02h0Z"/>
          <polygon class="cls-4" points="57.03 57.49 56.63 46.13 56.22 57.49 57.03 57.49"/>
          <path class="cls-9" d="M58.2,52.14c.95-2.07.13-3.78,1.08-5.6.97-1.83.36-3.32.41-4.15.07-.83.76-1.07.58-1.27-.16-.19-.87.2-1.16,1.3-.28,1.11.4,1.75-.75,3.99-1.14,2.23-.22,3.23-1.37,5.23l1.21.5Z"/>
          <path class="cls-4" d="M58.25,52.16l-.08-.04c.46-1.03.49-1.97.53-2.88.02-.93.07-1.81.55-2.74.67-1.32.56-2.45.45-3.31,0-.32-.05-.61-.02-.82.02-.52.29-.8.45-1,.13-.15.16-.2.13-.24-.4.03-.87.44-1.08,1.27-.11.38-.09.7-.06,1.04.02.7.06,1.47-.7,2.96-.56,1.1-.63,1.91-.68,2.69-.06.79-.11,1.54-.69,2.55.47-1.04.53-1.78.58-2.57.06-.78.11-1.58.69-2.72.75-1.45.73-2.23.68-2.91,0-.33-.02-.67.07-1.05.22-.9.72-1.32,1.01-1.38h.02s.23.06.23.06c.11.11,0,.23-.12.36-.15.18-.42.46-.44.93-.02.23,0,.5.04.81.09.87.23,2.03-.47,3.37-.47.9-.5,1.77-.53,2.69-.02.92-.07,1.87-.55,2.92h0Z"/>
          <path class="cls-4" d="M57.93,51.61c.76-2.07-.05-3.45.97-5.21-1.1,1.26-.4,2.89-1.35,5.03l.38.18Z"/>
          <path class="cls-9" d="M56.63,56.67l-16.58.61s-.31,0-.31.21c0,.22.31.22.31.22l16.58.62v-1.66Z"/>
          <path class="cls-4" d="M56.65,58.28l-16.59-.53c-.11,0-.35-.05-.35-.27,0-.19.24-.24.35-.24l16.58-.62v.1s-16.58.62-16.58.62c0,0-.27,0-.27.15,0,.17.27.17.27.17l16.59.62h0Z"/>
          <polygon class="cls-4" points="56.63 57.08 45.26 57.49 56.63 57.91 56.63 57.08"/>
          <path class="cls-9" d="M51.27,55.93c-2.07-.96-3.78-.15-5.59-1.09-1.84-.95-3.34-.35-4.18-.41-.83-.07-1.06-.76-1.26-.58-.18.16.21.88,1.31,1.16,1.12.29,1.75-.38,3.98.76,2.23,1.16,3.25.24,5.25,1.39l.5-1.22Z"/>
          <path class="cls-4" d="M50.8,57.1c-1.04-.47-1.81-.53-2.57-.59-.79-.05-1.6-.12-2.73-.69-1.46-.75-2.22-.72-2.9-.69-.36.02-.68.03-1.06-.07-.84-.21-1.31-.66-1.38-1v-.04s.05-.22.05-.22c.15-.12.25,0,.39.12.16.16.45.41.92.44.19.02.5-.02.79-.05.86-.09,2.05-.22,3.4.47.91.47,1.76.52,2.68.54.92.02,1.84.07,2.91.55l-.02.1c-1.07-.48-1.99-.51-2.89-.55-.95-.04-1.82-.05-2.74-.55-1.31-.68-2.47-.56-3.31-.46-.32.04-.59.06-.84.04-.5-.04-.79-.29-.97-.47-.13-.11-.19-.15-.24-.11.05.41.42.86,1.29,1.07.35.09.67.08,1.03.07.68-.03,1.47-.07,2.95.7,1.1.57,1.92.62,2.68.68.79.06,1.55.12,2.57.69h0Z"/>
          <path class="cls-4" d="M50.75,56.19c-2.07-.73-3.44.05-5.23-.95,1.26,1.11,2.91.38,5.05,1.34l.18-.39Z"/>
          <path class="cls-9" d="M56.63,58.33l16.58-.62s.3,0,.3-.22c0-.21-.3-.21-.3-.21l-16.58-.61v1.66Z"/>
          <path class="cls-4" d="M56.65,58.39v-.11s16.57-.62,16.57-.62c0,0,.25,0,.25-.17,0-.15-.25-.15-.25-.15l-16.58-.62,16.58.52c.11,0,.34.05.34.24,0,.22-.23.27-.34.27l-16.57.64h0Z"/>
          <polygon class="cls-4" points="56.63 57.91 68.01 57.49 56.63 57.08 56.63 57.91"/>
          <path class="cls-9" d="M61.98,59.06c2.1.95,3.81.13,5.63,1.09,1.81.96,3.31.35,4.15.42.82.06,1.06.74,1.26.56.19-.17-.21-.89-1.31-1.16-1.1-.27-1.76.39-3.97-.75-2.24-1.15-3.26-.23-5.24-1.38l-.52,1.22Z"/>
          <path class="cls-4" d="M72.95,61.23c-.09,0-.18-.07-.27-.16-.18-.16-.45-.41-.92-.44-.23-.02-.5,0-.81.05-.87.09-2.03.21-3.36-.48-.92-.47-1.77-.5-2.7-.54-.92-.02-1.87-.07-2.92-.55l.05-.09c1.03.47,1.95.51,2.87.55.93.04,1.81.07,2.75.55,1.31.69,2.45.56,3.29.47.34-.03.61-.07.84-.04.5.04.79.29.98.46.16.13.21.15.23.13-.02-.4-.42-.86-1.26-1.07-.38-.1-.69-.09-1.03-.08-.7.04-1.47.08-2.96-.69-1.12-.56-1.9-.62-2.67-.68-.8-.07-1.55-.12-2.57-.71,1.03.49,1.77.53,2.57.6.76.06,1.58.13,2.72.7,1.44.75,2.21.71,2.91.67.34-.01.67-.03,1.06.07.87.22,1.3.72,1.37,1v.03l-.07.22s-.04.04-.09.04h0Z"/>
          <path class="cls-4" d="M62.51,58.8c2.09.75,3.47-.02,5.24.96-1.26-1.1-2.9-.37-5.05-1.33l-.19.38Z"/>
          <path class="cls-9" d="M56.04,56.91l-11.28,12.17s-.21.22-.06.37c.13.13.35-.09.35-.09l12.17-11.28-1.18-1.17Z"/>
          <path class="cls-4" d="M44.81,69.55c-.29-.21-.16-.43-.09-.52l11.28-12.15.09.07-11.28,12.16s-.18.19-.09.29c.11.13.32-.07.32-.07l12.15-11.27-12.09,11.35s-.13.14-.29.15h0Z"/>
          <polygon class="cls-4" points="56.33 57.2 48.59 65.54 56.94 57.79 56.33 57.2"/>
          <path class="cls-9" d="M51.73,60.18c-2.16.79-2.79,2.59-4.72,3.2-1.98.62-2.61,2.09-3.24,2.64-.63.55-1.29.22-1.31.49,0,.25.76.48,1.76-.11.96-.58.93-1.51,3.32-2.27,2.41-.77,2.46-2.12,4.69-2.71l-.51-1.24Z"/>
          <path class="cls-4" d="M43.03,66.83c-.19,0-.36-.04-.47-.1l-.13-.21c0-.17.16-.18.34-.18.24-.02.61-.05.97-.35.18-.14.34-.35.51-.59.55-.67,1.29-1.6,2.75-2.06.97-.3,1.61-.89,2.27-1.51.68-.63,1.38-1.27,2.46-1.67l.04.09c-1.06.39-1.75,1.03-2.43,1.65-.68.64-1.31,1.23-2.32,1.53-1.42.45-2.17,1.37-2.68,2.03-.21.25-.36.46-.53.61-.39.33-.78.36-1.04.39-.16,0-.24,0-.24.07.34.25.95.28,1.66-.15.34-.2.55-.44.79-.69.45-.5.99-1.09,2.58-1.59,1.18-.38,1.78-.91,2.36-1.4.61-.53,1.18-1.02,2.33-1.32-1.09.4-1.65.87-2.26,1.39-.58.51-1.19,1.04-2.41,1.43-1.55.5-2.07,1.07-2.54,1.57-.23.25-.46.5-.8.7-.46.28-.87.38-1.21.38h0Z"/>
          <path class="cls-4" d="M51.54,60.74c-1.99.94-2.41,2.46-4.34,3.01,1.66-.12,2.29-1.78,4.5-2.61l-.16-.4Z"/>
          <path class="cls-9" d="M57.22,58.08l11.28-12.15s.22-.22.09-.38c-.16-.15-.38.07-.38.07l-12.17,11.29,1.18,1.17Z"/>
          <path class="cls-4" d="M57.25,58.12l-.06-.05,11.28-12.17s.16-.19.06-.3c-.11-.1-.29.07-.29.07l-12.18,11.29,12.12-11.36c.06-.08.29-.21.42-.07.13.15,0,.35-.07.44l-11.28,12.16h0Z"/>
          <polygon class="cls-4" points="56.94 57.79 64.69 49.46 56.33 57.2 56.94 57.79"/>
          <path class="cls-9" d="M61.53,54.82c2.14-.8,2.77-2.58,4.73-3.2,1.95-.61,2.61-2.1,3.24-2.64.63-.54,1.29-.22,1.29-.49.02-.25-.74-.49-1.73.1-.99.59-.97,1.5-3.35,2.28-2.39.77-2.46,2.13-4.67,2.73l.5,1.21Z"/>
          <path class="cls-4" d="M61.53,54.87l-.02-.09c1.07-.39,1.73-1.04,2.41-1.66.67-.64,1.32-1.24,2.34-1.55,1.4-.44,2.14-1.34,2.66-2.01.21-.25.38-.47.56-.62.36-.32.76-.35,1.02-.36.18-.01.24-.02.24-.08-.31-.25-.92-.29-1.66.15-.32.19-.55.44-.76.68-.47.52-1.02,1.09-2.6,1.62-1.19.37-1.79.88-2.39,1.39-.61.52-1.16,1.02-2.29,1.32,1.08-.39,1.65-.88,2.23-1.4.58-.51,1.21-1.02,2.44-1.41,1.55-.52,2.06-1.09,2.51-1.58.25-.26.47-.5.81-.71.73-.43,1.37-.44,1.67-.27l.15.22c-.02.15-.17.16-.35.18-.23,0-.61.03-.95.33-.18.15-.34.36-.55.61-.53.69-1.29,1.61-2.72,2.04-.99.3-1.63.91-2.3,1.53-.67.62-1.37,1.27-2.45,1.67h0Z"/>
          <path class="cls-4" d="M61.72,54.25c2-.95,2.43-2.47,4.37-3-1.66.11-2.32,1.77-4.5,2.6l.13.4Z"/>
          <path class="cls-9" d="M57.22,56.91l-12.17-11.29s-.22-.21-.35-.07c-.15.15.06.38.06.38l11.28,12.15,1.18-1.17Z"/>
          <path class="cls-4" d="M56.09,58.07l-11.37-12.11c-.07-.08-.21-.29-.05-.43.13-.15.34-.02.42.06l12.15,11.29-.06.07-12.15-11.28s-.21-.17-.32-.07c-.1.12.06.3.09.3l11.28,12.18h0Z"/>
          <polygon class="cls-4" points="56.94 57.2 48.59 49.46 56.33 57.79 56.94 57.2"/>
          <path class="cls-9" d="M53.94,52.61c-.78-2.15-2.56-2.78-3.19-4.74-.61-1.98-2.07-2.6-2.63-3.24-.55-.63-.23-1.28-.5-1.3-.25-.02-.47.77.09,1.75.61.98,1.53.96,2.3,3.35.76,2.38,2.11,2.46,2.72,4.69l1.21-.5Z"/>
          <path class="cls-4" d="M52.78,53.1c-.41-1.09-.87-1.64-1.39-2.25-.52-.59-1.03-1.21-1.42-2.4-.52-1.57-1.08-2.09-1.58-2.55-.27-.23-.52-.46-.72-.79-.45-.78-.41-1.43-.25-1.67l.23-.16c.13.02.16.18.16.36.02.24.05.61.34.96.15.17.38.35.63.55.67.53,1.58,1.26,2.03,2.72.32.97.9,1.6,1.53,2.28.61.67,1.26,1.37,1.69,2.45l-.11.04c-.39-1.06-1.03-1.76-1.66-2.42-.63-.68-1.22-1.33-1.54-2.33-.45-1.4-1.35-2.12-2-2.66-.24-.21-.47-.38-.63-.55-.32-.39-.34-.78-.36-1.03-.02-.18-.02-.25-.09-.25-.25.32-.29.92.13,1.67.21.33.45.53.7.77.48.47,1.08,1,1.6,2.58.35,1.18.9,1.79,1.38,2.38.52.59,1.02,1.16,1.33,2.3h0Z"/>
          <path class="cls-4" d="M53.41,52.42c-.97-2-2.5-2.41-3.04-4.36.12,1.66,1.81,2.31,2.62,4.51l.42-.15Z"/>
          <path class="cls-9" d="M56.04,58.08l12.17,11.28s.22.22.38.09c.13-.15-.09-.37-.09-.37l-11.28-12.17-1.18,1.17Z"/>
          <path class="cls-4" d="M68.45,69.48c-.18,0-.27-.08-.27-.09l-12.18-11.27.06-.07,12.18,11.27s.18.2.29.07c.1-.1-.06-.29-.06-.29l-11.28-12.16,11.34,12.09c.1.1.21.3.07.44-.05.01-.09.01-.16.01h0Z"/>
          <polygon class="cls-4" points="56.33 57.79 64.69 65.54 56.94 57.2 56.33 57.79"/>
          <path class="cls-9" d="M59.3,62.41c.81,2.14,2.6,2.76,3.2,4.73.61,1.96,2.09,2.6,2.63,3.23.57.64.23,1.29.5,1.31.24,0,.5-.76-.1-1.75-.58-.98-1.5-.97-2.27-3.34-.79-2.4-2.15-2.47-2.73-4.69l-1.24.51Z"/>
          <path class="cls-4" d="M65.64,71.71c-.16,0-.16-.17-.18-.35-.02-.24-.05-.6-.34-.96-.16-.16-.35-.34-.61-.53-.68-.53-1.6-1.27-2.05-2.73-.29-.97-.9-1.61-1.53-2.29-.61-.67-1.26-1.36-1.67-2.44l.1-.04c.41,1.06,1.03,1.75,1.66,2.41.63.69,1.25,1.33,1.54,2.33.45,1.42,1.37,2.14,2.01,2.68.25.19.49.36.62.55.33.38.35.76.35,1.01.02.2.05.25.1.25.27-.32.32-.92-.13-1.66-.21-.33-.42-.55-.68-.79-.52-.46-1.08-.99-1.6-2.57-.38-1.18-.9-1.79-1.42-2.39-.51-.6-1.01-1.17-1.3-2.3.38,1.08.85,1.64,1.39,2.24.48.59,1.03,1.2,1.42,2.41.5,1.55,1.08,2.07,1.56,2.53.25.24.51.46.7.8.44.74.45,1.38.27,1.68l-.22.14h0Z"/>
          <path class="cls-4" d="M59.87,62.58c.93,2,2.47,2.41,3.02,4.36-.12-1.67-1.78-2.31-2.62-4.49l-.4.13Z"/>
          <path class="cls-9" d="M55.86,57.18l-5.76,15.56s-.11.28.07.36c.19.08.32-.2.32-.2l6.9-15.08-1.53-.64Z"/>
          <path class="cls-4" d="M50.3,73.15c-.34-.08-.29-.31-.24-.44l5.75-15.56.1.04-5.76,15.55s-.08.25.04.3l.25-.19,6.91-15.07-6.83,15.13s-.06.17-.22.23h0Z"/>
          <polygon class="cls-4" points="56.27 57.34 52.28 68.01 57.01 57.66 56.27 57.34"/>
          <path class="cls-9" d="M53.14,61.85c-1.67,1.56-1.58,3.44-3.15,4.76-1.58,1.32-1.6,2.94-1.99,3.68-.38.75-1.09.7-1.01.95.09.24.9.16,1.58-.76.67-.92.32-1.77,2.23-3.4,1.9-1.62,1.44-2.89,3.26-4.3l-.92-.93Z"/>
          <path class="cls-4" d="M47.26,71.41s-.06,0-.09,0l-.23-.14c-.06-.15.1-.22.25-.29.22-.13.56-.28.76-.69.11-.21.18-.48.27-.78.23-.82.57-1.94,1.73-2.91.76-.65,1.13-1.46,1.53-2.29.36-.84.76-1.69,1.6-2.49l.07.08c-.81.77-1.23,1.63-1.6,2.44-.39.86-.75,1.66-1.55,2.32-1.13.96-1.44,2.06-1.7,2.88-.09.32-.17.59-.27.79-.22.45-.58.62-.81.73-.16.08-.22.12-.19.18.4.12.96-.08,1.48-.77.23-.31.34-.61.45-.93.25-.66.52-1.38,1.78-2.47.95-.8,1.3-1.52,1.66-2.21.36-.71.7-1.38,1.63-2.09-.85.77-1.16,1.44-1.53,2.13-.36.71-.73,1.43-1.7,2.26-1.24,1.06-1.5,1.79-1.75,2.42-.12.33-.23.64-.46.96-.46.62-1.03.89-1.35.89h0Z"/>
          <path class="cls-4" d="M53.19,62.45c-1.49,1.63-1.29,3.2-2.89,4.45,1.5-.74,1.46-2.54,3.15-4.13l-.27-.32Z"/>
          <path class="cls-9" d="M57.39,57.82l5.8-15.56s.11-.28-.1-.36c-.18-.09-.29.2-.29.2l-6.94,15.07,1.53.64Z"/>
          <path class="cls-4" d="M57.46,57.83l-.11-.03,5.76-15.56s.11-.23-.02-.29l-.24.18-6.94,15.08,6.82-15.11s.1-.18.23-.23l.29.11c.05.13-.02.3-.02.31l-5.76,15.54h0Z"/>
          <polygon class="cls-4" points="57.01 57.66 61 46.99 56.27 57.34 57.01 57.66"/>
          <path class="cls-9" d="M60.14,53.15c1.66-1.56,1.58-3.45,3.15-4.76,1.58-1.32,1.59-2.94,1.95-3.69.41-.75,1.13-.69,1.04-.94-.12-.25-.9-.16-1.58.75-.7.92-.31,1.77-2.23,3.4-1.92,1.63-1.47,2.91-3.29,4.31l.95.94Z"/>
          <path class="cls-4" d="M60.16,53.19l-.07-.07c.84-.78,1.23-1.63,1.6-2.46.38-.85.74-1.64,1.55-2.31,1.15-.95,1.47-2.07,1.71-2.87.1-.31.16-.58.27-.78.23-.46.59-.63.8-.74.15-.09.24-.12.22-.18-.42-.12-.99.08-1.48.77-.26.3-.34.62-.49.93-.22.66-.51,1.4-1.77,2.48-.92.79-1.31,1.5-1.65,2.2-.35.71-.69,1.39-1.61,2.09.82-.78,1.16-1.44,1.53-2.14.34-.7.72-1.43,1.66-2.23,1.26-1.06,1.5-1.79,1.76-2.43.13-.34.25-.65.47-.96.5-.67,1.08-.95,1.44-.89l.22.15c.05.14-.09.21-.24.29-.23.1-.57.26-.76.69-.12.2-.18.46-.27.77-.23.83-.57,1.96-1.73,2.93-.79.65-1.13,1.44-1.54,2.27-.38.84-.76,1.7-1.61,2.49h0Z"/>
          <path class="cls-4" d="M60.09,52.56c1.49-1.63,1.29-3.2,2.89-4.45-1.52.75-1.47,2.52-3.18,4.14l.29.32Z"/>
          <path class="cls-9" d="M56.94,56.73l-15.55-5.77s-.28-.12-.36.07c-.06.2.23.32.23.32l15.07,6.91.62-1.53Z"/>
          <path class="cls-4" d="M56.33,58.23l-15.1-6.83c-.12-.06-.32-.19-.25-.39.1-.18.34-.15.44-.09l15.55,5.76-.02.1-15.55-5.77s-.25-.1-.32.04c-.05.15.18.26.18.26l15.08,6.92h0Z"/>
          <polygon class="cls-4" points="56.78 57.12 46.11 53.13 56.46 57.89 56.78 57.12"/>
          <path class="cls-9" d="M52.28,54c-1.55-1.69-3.44-1.58-4.77-3.16-1.31-1.57-2.91-1.6-3.68-1.97-.74-.38-.69-1.1-.95-1.02-.24.08-.18.89.76,1.58.9.69,1.76.32,3.38,2.22,1.64,1.92,2.9,1.46,4.32,3.28l.92-.92Z"/>
          <path class="cls-4" d="M51.38,54.9c-.79-.86-1.44-1.18-2.15-1.53-.72-.36-1.43-.73-2.24-1.69-1.06-1.24-1.78-1.51-2.41-1.75-.34-.11-.63-.24-.97-.47-.67-.51-.95-1.11-.9-1.45l.16-.21c.13-.06.23.07.3.24.11.22.27.55.69.76.18.1.45.17.74.25.84.24,1.99.57,2.95,1.75.65.78,1.44,1.13,2.28,1.52.85.38,1.71.78,2.5,1.63l-.09.07c-.78-.83-1.63-1.23-2.44-1.61-.89-.39-1.66-.76-2.34-1.54-.95-1.15-2.07-1.47-2.89-1.7-.32-.09-.56-.17-.76-.26-.45-.24-.63-.58-.74-.81-.07-.16-.11-.24-.18-.21-.11.39.08.97.79,1.49.32.22.61.33.92.45.65.24,1.39.5,2.47,1.78.79.95,1.52,1.3,2.21,1.66.73.36,1.39.7,2.1,1.63h0Z"/>
          <path class="cls-4" d="M51.7,54.04c-1.64-1.47-3.21-1.29-4.46-2.87.74,1.5,2.52,1.44,4.15,3.16l.31-.29Z"/>
          <path class="cls-9" d="M56.32,58.26l15.55,5.77s.27.13.36-.07c.08-.19-.21-.3-.21-.3l-15.09-6.92-.62,1.53Z"/>
          <path class="cls-4" d="M72.05,64.12c-.09,0-.13-.02-.21-.04l-15.55-5.76.04-.09,15.56,5.76s.22.09.29-.05c.07-.13-.18-.24-.18-.24l-15.08-6.92,15.13,6.83c.11.05.32.19.23.37-.05.11-.15.15-.23.15h0Z"/>
          <polygon class="cls-4" points="56.46 57.89 67.14 61.85 56.78 57.12 56.46 57.89"/>
          <path class="cls-9" d="M60.98,61c1.58,1.68,3.47,1.58,4.77,3.15,1.32,1.58,2.92,1.6,3.68,1.97.76.39.69,1.1.97,1.02.22-.09.15-.9-.78-1.58-.92-.68-1.75-.3-3.37-2.21-1.65-1.92-2.92-1.46-4.32-3.29l-.95.93Z"/>
          <path class="cls-4" d="M70.34,67.2c-.12,0-.18-.13-.25-.27-.11-.22-.27-.55-.67-.76-.21-.1-.47-.18-.79-.27-.81-.23-1.97-.56-2.91-1.72-.64-.78-1.47-1.15-2.29-1.52-.84-.39-1.71-.79-2.47-1.62l.06-.07c.76.83,1.63,1.21,2.46,1.6.85.38,1.64.75,2.32,1.54.95,1.15,2.07,1.47,2.87,1.7.31.09.57.16.78.27.45.22.63.58.74.8.09.19.11.22.18.21.11-.38-.07-.96-.78-1.49-.32-.22-.61-.33-.95-.44-.64-.24-1.37-.51-2.47-1.78-.78-.95-1.5-1.31-2.21-1.66-.69-.36-1.37-.7-2.06-1.63.76.85,1.42,1.18,2.14,1.54.7.35,1.42.72,2.23,1.68,1.06,1.24,1.77,1.5,2.43,1.75.34.12.63.22.95.47.75.54.95,1.17.9,1.45l-.13.21s-.04.01-.06.01h0Z"/>
          <path class="cls-4" d="M61.58,60.96c1.61,1.48,3.19,1.28,4.44,2.89-.75-1.5-2.52-1.47-4.12-3.17l-.32.28Z"/>
          <path class="cls-9" d="M56.32,56.73l-15.07,6.92s-.29.11-.23.3c.09.2.36.07.36.07l15.55-5.77-.62-1.53Z"/>
          <path class="cls-4" d="M41.23,64.12c-.1,0-.21-.04-.25-.15-.06-.18.13-.32.25-.37l15.07-6.92.04.09-15.08,6.92s-.23.11-.18.24c.06.15.29.05.32.05l15.55-5.76-15.53,5.85s-.12.04-.18.04h0Z"/>
          <polygon class="cls-4" points="56.46 57.12 46.11 61.85 56.78 57.89 56.46 57.12"/>
          <path class="cls-9" d="M51.09,58.1c-2.29-.09-3.55,1.32-5.62,1.14-2.04-.18-3.19.93-3.98,1.2-.81.27-1.29-.29-1.4-.04-.13.22.52.74,1.64.57,1.13-.16,1.49-1.02,3.97-.83,2.5.21,3.09-1.02,5.39-.72v-1.32Z"/>
          <path class="cls-4" d="M41.32,61.06c-.67,0-1.08-.24-1.21-.43l-.06-.25c.09-.14.22-.08.4-.02.23.08.58.19,1.01.05.23-.07.47-.21.75-.36.76-.41,1.77-.98,3.28-.86,1.02.1,1.86-.21,2.7-.53.86-.32,1.73-.65,2.91-.6v.1c-1.1-.05-2.03.29-2.89.59-.85.33-1.69.62-2.73.55-1.46-.13-2.5.42-3.24.85-.27.15-.52.27-.74.35-.47.15-.85.04-1.08-.05-.21-.07-.25-.07-.27-.04.21.38.72.64,1.59.51.36-.05.68-.19.97-.33.63-.3,1.33-.62,3-.5,1.24.11,2-.15,2.75-.39.76-.25,1.48-.49,2.63-.33-1.2-.06-1.86.19-2.61.43-.75.25-1.52.49-2.78.39-1.64-.13-2.34.21-2.95.48-.32.15-.61.29-1,.35-.16,0-.32.02-.45.02h0Z"/>
          <path class="cls-4" d="M50.7,58.54c-2.21.12-3.17,1.36-5.2,1.12,1.6.54,2.81-.75,5.18-.68l.02-.44Z"/>
          <path class="cls-9" d="M56.94,58.26l15.09-6.91s.29-.12.21-.32c-.1-.19-.36-.07-.36-.07l-15.55,5.77.62,1.53Z"/>
          <path class="cls-4" d="M56.96,58.32l-.04-.09,15.08-6.92s.25-.1.18-.26c-.07-.14-.29-.04-.29-.04l-15.56,5.77,15.51-5.86c.12-.05.36-.09.44.09.09.19-.12.33-.23.39l-15.09,6.92h0Z"/>
          <polygon class="cls-4" points="56.78 57.89 67.14 53.13 56.46 57.12 56.78 57.89"/>
          <path class="cls-9" d="M62.19,56.89c2.27.09,3.55-1.33,5.6-1.13,2.05.18,3.2-.95,3.98-1.21.81-.25,1.29.29,1.41.05.11-.22-.52-.75-1.67-.58-1.12.18-1.46,1.03-3.95.83-2.5-.2-3.09,1.02-5.36.72v1.33Z"/>
          <path class="cls-4" d="M62.38,56.95h-.19v-.1c1.13.04,2-.28,2.86-.6.87-.33,1.71-.62,2.74-.53,1.47.13,2.5-.43,3.24-.85.28-.16.52-.29.74-.36.49-.16.84-.03,1.09.05.17.07.24.08.24.02-.18-.36-.72-.63-1.58-.52-.39.06-.68.19-.97.34-.65.3-1.35.62-3.01.49-1.23-.1-2.01.15-2.73.4-.76.24-1.49.47-2.63.33,1.14.05,1.84-.19,2.58-.44.74-.24,1.52-.49,2.78-.39,1.64.13,2.34-.19,2.95-.47.32-.16.63-.3,1.01-.35.86-.13,1.47.11,1.67.41l.04.25c-.06.13-.22.08-.4.02-.23-.08-.56-.2-1.02-.05-.19.07-.45.19-.72.35-.76.43-1.78.99-3.31.85-1.01-.1-1.82.22-2.68.54-.81.3-1.64.6-2.71.6h0Z"/>
          <path class="cls-4" d="M62.58,56.44c2.2-.1,3.17-1.35,5.17-1.11-1.58-.54-2.81.77-5.16.7v.41Z"/>
          <path class="cls-9" d="M57.39,57.18l-6.9-15.07s-.12-.29-.32-.2c-.18.08-.07.36-.07.36l5.76,15.56,1.53-.64Z"/>
          <path class="cls-4" d="M55.91,57.8l-5.85-15.51s-.07-.18-.02-.3l.27-.12c.16.05.22.23.22.23l6.91,15.07-.09.04-7.05-15.3-.12.04-.04.29,5.76,15.56h0Z"/>
          <polygon class="cls-4" points="57.01 57.34 52.28 46.99 56.27 57.66 57.01 57.34"/>
          <path class="cls-9" d="M56.04,51.96c.08-2.3-1.32-3.56-1.15-5.6.18-2.05-.95-3.21-1.21-4-.24-.8.29-1.26.07-1.38-.25-.11-.76.52-.58,1.64.17,1.14,1.03,1.47.82,3.97-.19,2.5,1.02,3.08.73,5.37h1.32Z"/>
          <path class="cls-4" d="M56.09,51.96h-.11c.04-1.13-.29-2.01-.59-2.87-.33-.88-.64-1.7-.56-2.74.13-1.49-.42-2.49-.84-3.23-.16-.29-.29-.53-.36-.73-.13-.49-.01-.86.07-1.1.05-.18.07-.24.02-.27-.39.19-.63.73-.52,1.58.07.38.21.67.34.99.29.63.63,1.33.5,3-.1,1.24.16,2,.39,2.74.24.76.49,1.47.33,2.63.05-1.15-.18-1.85-.42-2.6-.24-.75-.5-1.52-.4-2.77.13-1.64-.18-2.33-.47-2.95-.15-.31-.29-.61-.34-1-.13-.85.11-1.46.38-1.66l.28-.05c.13.07.09.22.02.4-.1.23-.21.58-.07,1.02.07.21.22.45.36.73.4.75.98,1.78.85,3.29-.09,1.01.21,1.83.55,2.7.32.86.64,1.75.61,2.9h0Z"/>
          <path class="cls-4" d="M55.59,51.57c-.11-2.21-1.35-3.18-1.13-5.19-.53,1.58.76,2.82.7,5.17l.42.02Z"/>
          <path class="cls-9" d="M55.86,57.82l6.94,15.08s.11.28.29.2c.21-.07.1-.36.1-.36l-5.8-15.56-1.53.64Z"/>
          <path class="cls-4" d="M63.11,73.15c-.29-.06-.39-.23-.39-.23l-6.91-15.08.1-.04,6.94,15.07s.11.26.24.19c.13-.05.02-.3.02-.3l-5.76-15.55,5.87,15.51c.05.12.1.35-.11.44h0Z"/>
          <polygon class="cls-4" points="56.27 57.66 61 68.01 57.01 57.34 56.27 57.66"/>
          <path class="cls-9" d="M57.24,63.04c-.1,2.29,1.32,3.56,1.14,5.61-.18,2.04.95,3.19,1.19,4.01.28.8-.29,1.26-.04,1.38.23.12.74-.53.58-1.66-.18-1.12-1.03-1.46-.84-3.97.21-2.49-1.01-3.08-.72-5.36l-1.32-.02Z"/>
          <path class="cls-4" d="M59.51,74.09c-.16-.07-.08-.24-.02-.39.07-.24.21-.58.05-1.03-.07-.22-.21-.45-.36-.74-.4-.75-.97-1.78-.86-3.29.1-1.01-.19-1.82-.51-2.69-.32-.87-.68-1.76-.63-2.91h.11c-.04,1.14.29,2.03.61,2.87.34.87.63,1.7.55,2.74-.13,1.47.42,2.49.82,3.24.17.28.3.52.36.75.16.48.05.84-.05,1.09-.06.17-.06.23-.01.27.35-.2.63-.74.5-1.61-.05-.37-.18-.66-.34-.98-.27-.62-.61-1.33-.47-3,.09-1.24-.16-1.99-.41-2.74-.24-.76-.47-1.47-.33-2.63-.05,1.15.19,1.86.44,2.6.23.75.51,1.52.39,2.77-.13,1.64.21,2.34.47,2.95.16.32.29.61.36,1.01.11.84-.13,1.44-.4,1.66l-.26.05h0Z"/>
          <path class="cls-4" d="M57.68,63.44c.12,2.2,1.36,3.18,1.12,5.19.53-1.59-.75-2.82-.68-5.15l-.44-.03Z"/>
          <path class="cls-9" d="M56.63,50.75c3.74,0,6.74,3.01,6.74,6.74s-3.01,6.76-6.74,6.76-6.77-3.02-6.77-6.76,3.02-6.74,6.77-6.74h0Z"/>
          <path class="cls-4" d="M56.63,64.3c-3.76,0-6.8-3.05-6.8-6.82s3.04-6.79,6.8-6.79,6.82,3.06,6.82,6.79-3.07,6.82-6.82,6.82h0ZM56.63,50.8c-3.7,0-6.72,3.01-6.72,6.69s3.02,6.72,6.72,6.72,6.7-3.01,6.7-6.72-2.98-6.69-6.7-6.69h0Z"/>
          <path class="cls-4" d="M60.9,56.04c-1.21-1.03-2.71-1.19-3.55-.4-.59.79-.55,1.75.18,2.75-.07,0-.18.05-.23.09-.52-.99-.61-2.02-.27-2.95,1.16-.93,2.73-1.04,3.87.52h0Z"/>
          <path class="cls-4" d="M59.04,55.73c-.7,0-.84.16-1.15.42-.32.27-.47.21-.53.27-.05.04,0,.21.11.15.11-.06.32-.15.63-.42.29-.26.63-.26.95-.26.92,0,1.44.78,1.55.73.1-.05-.53-.89-1.55-.89h0Z"/>
          <path class="cls-4" d="M60.2,56.62c-.64-.73-1.9-.78-2.43.05h.21c.52-.83,1.78-.48,1.87-.1v.1l.35-.05Z"/>
          <path class="cls-4" d="M58.93,56.09c.24,0,.47.22.47.47s-.23.47-.47.47-.47-.21-.47-.47.22-.47.47-.47h0Z"/>
          <path class="cls-4" d="M57.78,56.67c.52.46,1.67.52,2.43-.05l-.35-.05c-.52.56-1.35.52-1.87.1v-.1l-.21.1Z"/>
          <path class="cls-4" d="M60.27,56.87c-.87.69-1.77.61-2.29.32-.52-.32-.52-.41-.41-.41.1,0,.21.1.63.3.41.2,1.04.2,2.07-.21h0Z"/>
          <path class="cls-4" d="M57.73,58.44c.16.04.26.23.18.39-.06.16-.24.25-.38.19-.15-.04-.21-.15-.23-.27-.05.1-.27.41-.67.41h-.1l.1.16c.11,0,.4,0,.62-.16.16.21.42.27.65.13.21-.16.28-.45.11-.67-.06-.1-.17-.16-.29-.18h0Z"/>
          <path class="cls-4" d="M58.33,60.61c-.45-.31-.67-.78-1.19-.78-.11,0-.32.05-.51.16h-.1l.1.15c.19,0,.51-.25.9-.05.35.21.56.41.8.52h0Z"/>
          <path class="cls-4" d="M58.2,60.61c-1.06-.31-1.26-.1-1.56-.1h-.1l.1.22c.4,0,.62-.32,1.56-.12h0Z"/>
          <path class="cls-4" d="M58.33,60.61c-1.12-.1-.76.58-1.7.58h-.1l.1.16c1.14,0,.62-.62,1.7-.73h0Z"/>
          <path class="cls-4" d="M57.57,62.27c0-.51-.42-.93-.93-.93s-.95.42-.95.93c.12-.51.64-.83,1.16-.7.36.08.63.35.72.7h0Z"/>
          <path class="cls-4" d="M52.37,56.04c1.2-1.03,2.7-1.19,3.54-.4.61.79.53,1.75-.16,2.75.05,0,.16.05.21.09.51-.99.63-2.02.27-2.95-1.15-.93-2.71-1.04-3.86.52h0Z"/>
          <path class="cls-4" d="M54.25,55.73c.67,0,.82.16,1.14.42.3.27.45.21.52.27.05.04,0,.21-.11.15-.11-.06-.3-.15-.63-.42-.3-.26-.62-.26-.92-.26-.93,0-1.44.78-1.57.73-.11-.05.52-.89,1.57-.89h0Z"/>
          <path class="cls-4" d="M53.04,56.62c.68-.73,1.92-.78,2.45.05h-.22c-.52-.83-1.76-.48-1.84-.1v.1l-.39-.05Z"/>
          <path class="cls-4" d="M54.35,56.09c-.27,0-.47.22-.47.47s.21.47.47.47c.24,0,.45-.21.45-.47s-.21-.47-.45-.47h0Z"/>
          <path class="cls-4" d="M55.49,56.67c-.53.46-1.66.52-2.45-.05l.39-.05c.5.56,1.32.52,1.84.1v-.1l.22.1Z"/>
          <path class="cls-4" d="M52.98,56.87c.9.69,1.77.61,2.29.32.52-.32.52-.41.41-.41-.1,0-.19.1-.62.3-.42.2-1.03.2-2.09-.21h0Z"/>
          <path class="cls-4" d="M55.54,58.44c-.16.04-.24.23-.17.39.04.16.22.25.38.19.11-.04.21-.15.21-.27.05.1.27.41.68.41h.11l-.11.16c-.1,0-.41,0-.63-.16-.15.21-.44.27-.63.13-.23-.16-.28-.45-.15-.67.1-.1.21-.16.32-.18h0Z"/>
          <path class="cls-4" d="M54.91,60.61c.47-.31.68-.78,1.2-.78.11,0,.32.05.52.16h.11l-.11.15c-.21,0-.52-.25-.89-.05-.36.21-.58.41-.84.52h0Z"/>
          <path class="cls-4" d="M55.07,60.61c1.04-.31,1.25-.1,1.56-.1h.11l-.11.22c-.41,0-.63-.32-1.56-.12h0Z"/>
          <path class="cls-4" d="M54.91,60.61c1.15-.1.78.58,1.72.58h.11l-.11.16c-1.14,0-.63-.62-1.72-.73h0Z"/>
          <path class="cls-4" d="M55.69,62.27c0-.51.44-.93.95-.93s.93.42.93.93c-.11-.51-.63-.83-1.16-.7-.34.08-.63.35-.72.7h0Z"/>
        </g>
      </g>
    </g>
  </g>
</svg>