<?xml version="1.0" encoding="UTF-8"?>
<svg id="Capa_2" data-name="Capa 2" xmlns="http://www.w3.org/2000/svg" xmlns:xlink="http://www.w3.org/1999/xlink" viewBox="0 0 110.36 110.36">
  <defs>
    <style>
      .cls-1 {
        fill: none;
      }

      .cls-2 {
        clip-path: url(#clippath-1);
      }

      .cls-3 {
        fill: #c1272d;
      }

      .cls-4 {
        fill: #2b6537;
      }

      .cls-5 {
        clip-path: url(#clippath);
      }
    </style>
    <clipPath id="clippath">
      <circle class="cls-1" cx="55.18" cy="55.18" r="55.18"/>
    </clipPath>
    <clipPath id="clippath-1">
      <rect class="cls-1" x="-43.51" y="-1.08" width="192.83" height="112.52"/>
    </clipPath>
  </defs>
  <g id="Capa_2-2" data-name="Capa 2">
    <g class="cls-5">
      <g class="cls-2">
        <rect class="cls-3" x="-31.08" y="-27.77" width="172.52" height="165.91"/>
        <rect class="cls-3" x="-5.13" y="-1.08" width="117" height="112.52"/>
        <polygon class="cls-4" points="48.79 45.09 23.97 45.11 52.22 66.68 56.46 63.45 39.32 50.34 47.16 50.32 48.79 45.09"/>
        <polygon class="cls-4" points="64.14 45.09 56.45 20.26 45.67 55.19 49.9 58.42 56.45 37.26 58.89 45.09 64.14 45.09"/>
        <polygon class="cls-4" points="68.88 60.44 88.97 45.09 54.02 45.09 52.41 50.32 73.58 50.32 67.26 55.19 68.88 60.44"/>
        <polygon class="cls-4" points="56.46 69.94 76.55 85.24 65.75 50.32 60.51 50.32 67.06 71.51 60.7 66.68 56.46 69.94"/>
        <polygon class="cls-4" points="44.03 60.42 36.38 85.27 64.63 63.67 63.01 58.42 45.88 71.53 48.29 63.7 44.03 60.42"/>
      </g>
    </g>
  </g>
</svg>